PathFileType	4	(X/Y/Z)	C:/Users/opensim2020/Desktop/walking_exp_matlab/subject01_walking07_straight_01.trc																																																																																																																															
DataRate	CameraRate	NumFrames	NumMarkers	Units	OrigDataRate	OrigDataStartFrame	OrigNumFrames																																																																																																																											
100	100	4	43	mm	100	760	282																																																																																																																											
Frame#	Time	LFHD			RFHD			LBHD			RBHD			C7			T10			CLAV			STRN			RBAK			LSHO			LUPA			LELB			LFRM			LWRA			LWRB			LFIN			RSHO			RUPA			RELB			RFRM			RWRA			RWRB			RFIN			LASI			RASI			LPSI			RPSI			LTHI			LKNE			LTIB			LANK			LHEE			LTOE			RTHI			RKNE			RTIB			RANK			RHEE			RTOE			*39			*40			*41			*42		
		X1	Y1	Z1	X2	Y2	Z2	X3	Y3	Z3	X4	Y4	Z4	X5	Y5	Z5	X6	Y6	Z6	X7	Y7	Z7	X8	Y8	Z8	X9	Y9	Z9	X10	Y10	Z10	X11	Y11	Z11	X12	Y12	Z12	X13	Y13	Z13	X14	Y14	Z14	X15	Y15	Z15	X16	Y16	Z16	X17	Y17	Z17	X18	Y18	Z18	X19	Y19	Z19	X20	Y20	Z20	X21	Y21	Z21	X22	Y22	Z22	X23	Y23	Z23	X24	Y24	Z24	X25	Y25	Z25	X26	Y26	Z26	X27	Y27	Z27	X28	Y28	Z28	X29	Y29	Z29	X30	Y30	Z30	X31	Y31	Z31	X32	Y32	Z32	X33	Y33	Z33	X34	Y34	Z34	X35	Y35	Z35	X36	Y36	Z36	X37	Y37	Z37	X38	Y38	Z38	X39	Y39	Z39	X40	Y40	Z40	X41	Y41	Z41	X42	Y42	Z42	X43	Y43	Z43
																																																																																																																																		
106	1.05	-687.51678	1656.8335	1441.04834	-655.77704	1665.81848	1550.86682	-796.43658	1601.18018	1468.98584	-765.60004	1609.45227	1585.55676	-818.39203	1416.25708	1500.45544	-855.31604	1123.8938	1500.06372	-673.71936	1350.54431	1496.86804	-632.07391	1194.78577	1492.19165	-873.06348	1223.22913	1577.49573	-734.82672	1382.70276	1336.8385	-794.98566	1203.92505	1254.01904	-838.96484	1059.39612	1259.50525	-822.72662	945.45502	1237.8479	-769.02814	816.84265	1261.38269	-823.41583	823.1601	1234.79211	-790.54407	743.71289	1231.46143	-734.68958	1378.58862	1649.59143	-776.59302	1179.92456	1754.995	-758.85181	1054.24048	1766.5885	-691.08411	951.37964	1794.85596	-574.38629	874.14667	1771.94031	-613.81354	857.63922	1811.63013	-549.03589	803.66724	1810.40234	-679.01471	915.50079	1398.4104	-693.63269	917.04913	1616.66223	-867.86011	930.62982	1434.65479	-876.55493	942.5365	1578.32227	-639.74207	595.47607	1339.24243	-613.64661	466.88065	1363.45313	-612.12946	279.29889	1357.80005	-563.05768	66.77283	1410.30261	-595.01221	31.08164	1466.69275	-416.25995	59.6689	1395.64319	-819.53131	599.80469	1668.06372	-853.03278	440.89514	1646.40649	-964.77576	302.23242	1643.59106	-1055.68567	113.59222	1593.02087	-1109.33301	96.34662	1538.93555	-937.07123	29.41215	1595.15808	-674.59222	1697.68591	1530.65417	1973.11096	1023.27777	-3101.91577	2012.49866	1021.9472	-3140.74341	NaN	NaN	NaN
107	1.06	-678.77136	1657.08765	1439.08081	-647.39203	1666.15967	1548.98157	-787.34277	1600.47131	1466.64575	-756.82495	1608.6825	1583.29285	-808.82324	1415.89478	1498.01648	-844.7193	1123.30798	1499.07813	-663.56665	1350.23047	1494.60059	-621.14587	1194.59949	1490.42664	-862.69714	1222.80676	1575.6842	-725.065	1381.8512	1334.47729	-784.45599	1202.3866	1252.3877	-827.63623	1057.5365	1258.5575	-811.33679	943.6944	1236.93628	-757.401	815.29333	1260.71069	-811.89032	821.41797	1234.08386	-778.88586	742.06403	1230.87891	-724.65533	1378.42944	1647.47937	-767.16833	1180.04565	1753.38025	-750.21246	1054.22351	1765.16125	-683.37622	950.84229	1793.85522	-567.4588	872.39172	1771.20618	-607.099	856.35553	1810.95935	-542.91473	801.72296	1809.81592	-668.10437	915.19238	1397.43591	-682.29547	916.43848	1615.66943	-857.08606	930.03589	1433.48059	-865.45319	941.93799	1577.53979	-629.15546	595.09576	1340.19482	-602.92285	466.90848	1363.37463	-604.39978	279.29187	1359.1969	-559.69104	66.83205	1410.06653	-593.31085	32.24118	1466.26904	-413.48267	54.5059	1395.6344	-808.3667	599.17291	1667.7085	-842.49231	440.22028	1646.55371	-957.4386	304.01892	1643.70227	-1052.33081	117.21896	1594.19189	-1106.46338	102.15744	1540.3999	-936.62531	29.29007	1595.26904	-666.52454	1697.62891	1528.75745	1972.98926	1023.84003	-3102.02417	2012.48181	1022.04553	-3140.68604	NaN	NaN	NaN
108	1.07	-670.04254	1657.81836	1437.0752	-638.79285	1666.82349	1547.15857	-777.96747	1600.09888	1464.36084	-747.90161	1608.45203	1581.03394	-798.8197	1416.01794	1495.64685	-834.28528	1123.47546	1498.28857	-653.31805	1350.46399	1492.46741	-610.7514	1194.90674	1488.49841	-852.36322	1222.63147	1573.62866	-715.2428	1381.19397	1332.11816	-773.6004	1200.90588	1250.74841	-816.00854	1056.00281	1257.22388	-799.52228	942.07672	1235.8761	-745.61499	813.68079	1260.0271	-799.9585	819.77069	1233.36047	-766.81805	740.61798	1230.19934	-714.64709	1378.5061	1645.40112	-757.70709	1180.31689	1751.66931	-741.73291	1054.36365	1763.57532	-675.98865	950.4115	1792.76343	-560.85895	870.5426	1770.40808	-600.60406	855.19037	1810.30615	-537.25323	799.7373	1809.17615	-657.26746	915.02899	1396.47217	-670.96655	916.04773	1614.60376	-846.2312	929.88708	1432.3584	-854.17621	941.15106	1576.67004	-619.10913	595.61261	1340.74548	-592.04645	468.05783	1362.78479	-596.02557	280.29501	1359.20886	-556.34467	66.54086	1409.0603	-591.39526	33.40665	1465.27222	-410.49231	50.31271	1395.60437	-796.45624	598.46136	1667.16797	-830.78528	439.56006	1646.47229	-949.32196	306.23752	1643.80518	-1048.49878	121.8092	1595.39294	-1102.72351	108.31857	1541.5459	-936.09814	29.36384	1595.48474	-658.38519	1698.14539	1526.87708	1973.20532	1023.30725	-3101.97925	2012.49976	1021.97968	-3140.55933	NaN	NaN	NaN
109	1.08	-661.0293	1658.60059	1435.04614	-630.18433	1667.6825	1545.0719	-768.84003	1600.31116	1461.97205	-738.86841	1608.53857	1578.74963	-788.32483	1416.61804	1493.46802	-823.65253	1123.53442	1497.32483	-643.11792	1351.01917	1490.32568	-600.37854	1195.52026	1486.47693	-842.05322	1222.85901	1571.53638	-705.31421	1380.89343	1329.85974	-762.41687	1199.74133	1249.10144	-804.06049	1054.67822	1255.78882	-787.30078	940.63672	1234.69995	-732.91071	812.51257	1258.80835	-787.55536	818.37561	1232.4342	-754.19696	739.50562	1229.29602	-704.54645	1378.86682	1643.30359	-748.36285	1180.83667	1749.79126	-733.4314	1054.82703	1761.82361	-668.83746	950.09094	1791.46631	-554.69653	868.73096	1769.51514	-594.61597	854.09869	1809.46814	-532.18054	797.72351	1808.48486	-646.36871	915.21704	1395.58984	-659.63232	915.97711	1613.51501	-835.35724	930.35657	1431.44409	-843.0083	940.67334	1576.0874	-609.11243	596.64777	1340.77478	-581.38287	469.91205	1362.23413	-587.29333	281.64679	1357.68054	-553.67133	66.65057	1408.25867	-590.05676	34.64624	1464.47754	-408.49356	46.10156	1395.21362	-783.54541	597.91858	1666.56104	-817.63611	438.95929	1646.43286	-940.0127	308.67288	1643.6748	-1043.83557	126.76087	1596.33191	-1098.03137	115.5308	1542.36096	-935.4845	29.35139	1595.49866	-650.01532	1698.97705	1524.95618	1973.15076	1023.40063	-3101.90283	2012.48022	1021.90399	-3140.77246	NaN	NaN	NaN
